<?xml version="1.0" encoding="UTF-8"?>
<svg xmlns="http://www.w3.org/2000/svg" xmlns:xlink="http://www.w3.org/1999/xlink" width="40px" height="40px" viewBox="0 0 40 40" version="1.1">
<g id="surface1">
<path style="fill:none;stroke-width:0.3;stroke-linecap:butt;stroke-linejoin:miter;stroke:rgb(0%,0%,0%);stroke-opacity:1;stroke-miterlimit:4;" d="M 732.03125 465.039062 C 732.421875 446.777344 731.445312 428.125 732.03125 409.960938 C 732.519531 391.894531 730.957031 372.949219 732.03125 354.980469 C 733.105469 337.011719 729.785156 317.578125 732.03125 300 C 734.277344 282.421875 724.414062 274.609375 713.769531 263.28125 C 703.125 251.953125 696.777344 247.167969 686.71875 235.253906 C 676.757812 223.339844 668.554688 213.476562 650.976562 216.015625 C 633.398438 218.554688 614.941406 214.84375 596.972656 216.015625 C 579.003906 217.089844 560.15625 215.527344 541.992188 216.015625 C 523.828125 216.503906 505.273438 215.722656 487.011719 216.015625 C 468.75 216.210938 450.292969 215.917969 432.03125 216.015625 C 413.769531 216.113281 395.214844 215.917969 376.953125 216.015625 C 358.691406 216.015625 340.234375 216.015625 321.972656 216.015625 C 303.808594 216.015625 286.132812 216.015625 267.96875 216.015625 C 267.96875 405.371094 267.96875 594.628906 267.96875 783.984375 C 287.890625 783.984375 308.203125 783.984375 328.027344 783.984375 C 347.851562 783.984375 367.285156 783.984375 387.011719 783.984375 C 406.738281 783.984375 427.34375 784.082031 446.972656 783.984375 C 466.601562 783.886719 486.621094 784.179688 505.957031 783.984375 C 525.390625 783.886719 547.070312 784.277344 566.015625 783.984375 C 584.863281 783.691406 607.324219 784.667969 625 783.984375 C 642.675781 783.300781 665.136719 788.964844 676.269531 776.269531 C 687.402344 763.574219 696.484375 758.886719 706.25 746.289062 C 716.015625 733.59375 731.347656 730.46875 732.03125 712.988281 C 732.714844 695.507812 731.640625 671.679688 732.03125 653.027344 C 732.324219 634.375 731.835938 613.183594 732.03125 594.042969 C 732.128906 574.804688 731.835938 554.296875 732.03125 534.960938 C 695.703125 524.707031 660.351562 511.035156 624.023438 500.976562 C 624.023438 558.007812 624.023438 615.039062 624.023438 671.972656 C 542.285156 671.972656 460.644531 671.972656 379.003906 671.972656 C 378.320312 556.054688 380.371094 439.453125 378.027344 324.023438 C 388.183594 324.023438 398.828125 324.023438 408.984375 324.023438 C 419.140625 324.023438 428.90625 324.023438 438.964844 324.023438 C 449.023438 324.023438 458.984375 324.023438 469.042969 324.023438 C 479.003906 324.023438 488.964844 323.925781 499.023438 324.023438 C 508.984375 324.023438 519.042969 323.925781 529.003906 324.023438 C 538.964844 324.121094 549.121094 323.730469 558.984375 324.023438 C 568.945312 324.21875 579.199219 323.4375 588.964844 324.023438 C 598.828125 324.511719 609.375 322.851562 619.042969 324.023438 C 628.613281 325.195312 622.949219 340.429688 624.023438 349.023438 C 625.097656 357.519531 623.535156 369.628906 624.023438 379.003906 C 624.511719 388.28125 623.828125 399.316406 624.023438 408.984375 C 624.21875 418.652344 623.925781 429.101562 624.023438 438.964844 C 624.121094 448.828125 623.925781 459.082031 624.023438 469.042969 C 624.023438 478.90625 623.925781 489.0625 624.023438 499.023438 C 660.351562 488.964844 695.703125 475.292969 732.03125 465.039062 Z M 732.03125 465.039062 " transform="matrix(0.04,0,0,0.04,0,0)"/>
<path style="fill:none;stroke-width:0.3;stroke-linecap:butt;stroke-linejoin:miter;stroke:rgb(0%,0%,0%);stroke-opacity:1;stroke-miterlimit:4;" d="M 545.019531 475 C 544.335938 447.851562 546.289062 419.433594 544.042969 392.96875 C 529.101562 415.429688 511.816406 436.425781 496.972656 458.984375 C 470.898438 450.878906 445.117188 441.894531 419.042969 433.984375 C 434.765625 456.445312 451.953125 478.320312 466.992188 500.976562 C 449.902344 521.582031 434.863281 544.238281 419.042969 566.015625 C 445.117188 558.105469 470.996094 549.121094 496.972656 541.015625 C 512.5 563.183594 528.808594 585.449219 545.019531 607.03125 C 545.019531 579.6875 545.019531 552.34375 545.019531 525 C 570.410156 517.089844 596.289062 509.179688 620.996094 500 C 596.386719 490.820312 570.410156 482.910156 545.019531 475 Z M 545.019531 475 " transform="matrix(0.04,0,0,0.04,0,0)"/>
<path style=" stroke:none;fill-rule:nonzero;fill:rgb(0%,0%,0%);fill-opacity:1;" d="M 29.28125 18.601562 C 29.296875 17.871094 29.257812 17.125 29.28125 16.398438 C 29.300781 15.675781 29.238281 14.917969 29.28125 14.199219 C 29.324219 13.480469 29.191406 12.703125 29.28125 12 C 29.371094 11.296875 28.976562 10.984375 28.550781 10.53125 C 28.125 10.078125 27.871094 9.886719 27.46875 9.410156 C 27.070312 8.933594 26.742188 8.539062 26.039062 8.640625 C 25.335938 8.742188 24.597656 8.59375 23.878906 8.640625 C 23.160156 8.683594 22.40625 8.621094 21.679688 8.640625 C 20.953125 8.660156 20.210938 8.628906 19.480469 8.640625 C 18.75 8.648438 18.011719 8.636719 17.28125 8.640625 C 16.550781 8.644531 15.808594 8.636719 15.078125 8.640625 C 14.347656 8.640625 13.609375 8.640625 12.878906 8.640625 C 12.152344 8.640625 11.445312 8.640625 10.71875 8.640625 C 10.71875 16.214844 10.71875 23.785156 10.71875 31.359375 C 11.515625 31.359375 12.328125 31.359375 13.121094 31.359375 C 13.914062 31.359375 14.691406 31.359375 15.480469 31.359375 C 16.269531 31.359375 17.09375 31.363281 17.878906 31.359375 C 18.664062 31.355469 19.464844 31.367188 20.238281 31.359375 C 21.015625 31.355469 21.882812 31.371094 22.640625 31.359375 C 23.394531 31.347656 24.292969 31.386719 25 31.359375 C 25.707031 31.332031 26.605469 31.558594 27.050781 31.050781 C 27.496094 30.542969 27.859375 30.355469 28.25 29.851562 C 28.640625 29.34375 29.253906 29.21875 29.28125 28.519531 C 29.308594 27.820312 29.265625 26.867188 29.28125 26.121094 C 29.292969 25.375 29.273438 24.527344 29.28125 23.761719 C 29.285156 22.992188 29.273438 22.171875 29.28125 21.398438 C 27.828125 20.988281 26.414062 20.441406 24.960938 20.039062 C 24.960938 22.320312 24.960938 24.601562 24.960938 26.878906 C 21.691406 26.878906 18.425781 26.878906 15.160156 26.878906 C 15.132812 22.242188 15.214844 17.578125 15.121094 12.960938 C 15.527344 12.960938 15.953125 12.960938 16.359375 12.960938 C 16.765625 12.960938 17.15625 12.960938 17.558594 12.960938 C 17.960938 12.960938 18.359375 12.960938 18.761719 12.960938 C 19.160156 12.960938 19.558594 12.957031 19.960938 12.960938 C 20.359375 12.960938 20.761719 12.957031 21.160156 12.960938 C 21.558594 12.964844 21.964844 12.949219 22.359375 12.960938 C 22.757812 12.96875 23.167969 12.9375 23.558594 12.960938 C 23.953125 12.980469 24.375 12.914062 24.761719 12.960938 C 25.144531 13.007812 24.917969 13.617188 24.960938 13.960938 C 25.003906 14.300781 24.941406 14.785156 24.960938 15.160156 C 24.980469 15.53125 24.953125 15.972656 24.960938 16.359375 C 24.96875 16.746094 24.957031 17.164062 24.960938 17.558594 C 24.964844 17.953125 24.957031 18.363281 24.960938 18.761719 C 24.960938 19.15625 24.957031 19.5625 24.960938 19.960938 C 26.414062 19.558594 27.828125 19.011719 29.28125 18.601562 Z M 29.28125 18.601562 "/>
<path style=" stroke:none;fill-rule:nonzero;fill:rgb(0%,0%,0%);fill-opacity:1;" d="M 21.800781 19 C 21.773438 17.914062 21.851562 16.777344 21.761719 15.71875 C 21.164062 16.617188 20.472656 17.457031 19.878906 18.359375 C 18.835938 18.035156 17.804688 17.675781 16.761719 17.359375 C 17.390625 18.257812 18.078125 19.132812 18.679688 20.039062 C 17.996094 20.863281 17.394531 21.769531 16.761719 22.640625 C 17.804688 22.324219 18.839844 21.964844 19.878906 21.640625 C 20.5 22.527344 21.152344 23.417969 21.800781 24.28125 C 21.800781 23.1875 21.800781 22.09375 21.800781 21 C 22.816406 20.683594 23.851562 20.367188 24.839844 20 C 23.855469 19.632812 22.816406 19.316406 21.800781 19 Z M 21.800781 19 "/>
</g>
</svg>
