<?xml version="1.0" encoding="iso-8859-1"?>
<!-- Generator: Adobe Illustrator 24.1.2, SVG Export Plug-In . SVG Version: 6.00 Build 0)  -->
<svg version="1.1" baseProfile="basic" id="Layer_1"
	 xmlns="http://www.w3.org/2000/svg" xmlns:xlink="http://www.w3.org/1999/xlink" x="0px" y="0px" viewBox="0 0 48 48"
	 xml:space="preserve">
<g>
	<path d="M14,40.5c-3.584,0-6.5-2.916-6.5-6.5V14c0-3.584,2.916-6.5,6.5-6.5h20c3.584,0,6.5,2.916,6.5,6.5v20
		c0,3.584-2.916,6.5-6.5,6.5H14z M17.879,29L24,35.121L30.121,29l-4-4L28,23.121l4,4L38.121,21L32,14.879l-4,4l-4-4l-4,4l-4-4
		L9.879,21L16,27.121l4-4L21.879,25L17.879,29z"/>
	<path d="M34,9c2.757,0,5,2.243,5,5v5.757l-0.879-0.879l-4-4L32,12.757l-2.121,2.121L28,16.757l-1.879-1.879L24,12.757l-2.121,2.121
		L20,16.757l-1.879-1.879L16,12.757l-2.121,2.121l-4,4L9,19.757V14c0-2.757,2.243-5,5-5H34 M39,22.243V34c0,2.757-2.243,5-5,5H14
		c-2.757,0-5-2.243-5-5V22.243l0.879,0.879l4,4L15.757,29l2.121,2.121l4,4L24,37.243l2.121-2.121l4-4L32,29.243l2.121-2.121l4-4
		L39,22.243 M34,6H14c-4.418,0-8,3.582-8,8v20c0,4.418,3.582,8,8,8h20c4.418,0,8-3.582,8-8V14C42,9.582,38.418,6,34,6L34,6z M28,21
		l4-4l4,4l-4,4L28,21l-4,4l4,4l-4,4l-4-4l4-4l-4-4l-4,4l-4-4l4-4l4,4l4-4L28,21L28,21z"/>
</g>
</svg>